<mxfile host="app.diagrams.net" modified="2023-11-26T15:28:57.644Z" agent="Mozilla/5.0 (Windows NT 10.0; Win64; x64) AppleWebKit/537.36 (KHTML, like Gecko) Chrome/116.0.0.0 Safari/537.36" version="22.1.4" etag="pjxZM-pPeKrdpdMd0KqX" type="github">
  <diagram name="Trang-1" id="tplnZAVKaeDgVU88gFAU">
    <mxGraphModel>
      <root>
        <mxCell id="0" />
        <mxCell id="1" parent="0" />
      </root>
    </mxGraphModel>
  </diagram>
</mxfile>
